<svg
	fill="none"
	height="6in"
	viewBox="0 0 8 6"
	width="8in"
	xmlns="http://www.w3.org/2000/svg"
><circle
	cx="5.76"
	cy="9.56"
	fill="none"
	r="8"
	stroke-width="0.001388888888888889"
	stroke="black"
/>
<circle
	cx="5.76"
	cy="9.6"
	fill="none"
	r="8"
	stroke-width="0.001388888888888889"
	stroke="black"
/>
<circle
	cx="5.76"
	cy="9.64"
	fill="none"
	r="8"
	stroke-width="0.001388888888888889"
	stroke="black"
/>
<circle
	cx="3.52"
	cy="9.68"
	fill="none"
	r="8"
	stroke-width="0.001388888888888889"
	stroke="black"
/><circle
	cx="3.68"
	cy="9.68"
	fill="none"
	r="8"
	stroke-width="0.001388888888888889"
	stroke="black"
/><circle
	cx="5.6"
	cy="9.68"
	fill="none"
	r="8"
	stroke-width="0.001388888888888889"
	stroke="black"
/><circle
	cx="5.76"
	cy="9.68"
	fill="none"
	r="8"
	stroke-width="0.001388888888888889"
	stroke="black"
/>
<circle
	cx="3.2"
	cy="9.72"
	fill="none"
	r="8"
	stroke-width="0.001388888888888889"
	stroke="black"
/><circle
	cx="3.36"
	cy="9.72"
	fill="none"
	r="8"
	stroke-width="0.001388888888888889"
	stroke="black"
/><circle
	cx="3.52"
	cy="9.72"
	fill="none"
	r="8"
	stroke-width="0.001388888888888889"
	stroke="black"
/><circle
	cx="3.68"
	cy="9.72"
	fill="none"
	r="8"
	stroke-width="0.001388888888888889"
	stroke="black"
/><circle
	cx="3.84"
	cy="9.72"
	fill="none"
	r="8"
	stroke-width="0.001388888888888889"
	stroke="black"
/><circle
	cx="5.6"
	cy="9.72"
	fill="none"
	r="8"
	stroke-width="0.001388888888888889"
	stroke="black"
/><circle
	cx="5.76"
	cy="9.72"
	fill="none"
	r="8"
	stroke-width="0.001388888888888889"
	stroke="black"
/>
<circle
	cx="3.2"
	cy="9.76"
	fill="none"
	r="8"
	stroke-width="0.001388888888888889"
	stroke="black"
/><circle
	cx="3.36"
	cy="9.76"
	fill="none"
	r="8"
	stroke-width="0.001388888888888889"
	stroke="black"
/><circle
	cx="3.52"
	cy="9.76"
	fill="none"
	r="8"
	stroke-width="0.001388888888888889"
	stroke="black"
/><circle
	cx="3.68"
	cy="9.76"
	fill="none"
	r="8"
	stroke-width="0.001388888888888889"
	stroke="black"
/><circle
	cx="3.84"
	cy="9.76"
	fill="none"
	r="8"
	stroke-width="0.001388888888888889"
	stroke="black"
/><circle
	cx="4"
	cy="9.76"
	fill="none"
	r="8"
	stroke-width="0.001388888888888889"
	stroke="black"
/><circle
	cx="5.6"
	cy="9.76"
	fill="none"
	r="8"
	stroke-width="0.001388888888888889"
	stroke="black"
/><circle
	cx="5.76"
	cy="9.76"
	fill="none"
	r="8"
	stroke-width="0.001388888888888889"
	stroke="black"
/>
<circle
	cx="3.04"
	cy="9.8"
	fill="none"
	r="8"
	stroke-width="0.001388888888888889"
	stroke="black"
/><circle
	cx="3.2"
	cy="9.8"
	fill="none"
	r="8"
	stroke-width="0.001388888888888889"
	stroke="black"
/><circle
	cx="3.36"
	cy="9.8"
	fill="none"
	r="8"
	stroke-width="0.001388888888888889"
	stroke="black"
/><circle
	cx="3.52"
	cy="9.8"
	fill="none"
	r="8"
	stroke-width="0.001388888888888889"
	stroke="black"
/><circle
	cx="3.68"
	cy="9.8"
	fill="none"
	r="8"
	stroke-width="0.001388888888888889"
	stroke="black"
/><circle
	cx="3.84"
	cy="9.8"
	fill="none"
	r="8"
	stroke-width="0.001388888888888889"
	stroke="black"
/><circle
	cx="4"
	cy="9.8"
	fill="none"
	r="8"
	stroke-width="0.001388888888888889"
	stroke="black"
/><circle
	cx="5.6"
	cy="9.8"
	fill="none"
	r="8"
	stroke-width="0.001388888888888889"
	stroke="black"
/><circle
	cx="5.76"
	cy="9.8"
	fill="none"
	r="8"
	stroke-width="0.001388888888888889"
	stroke="black"
/>
<circle
	cx="3.04"
	cy="9.84"
	fill="none"
	r="8"
	stroke-width="0.001388888888888889"
	stroke="black"
/><circle
	cx="3.2"
	cy="9.84"
	fill="none"
	r="8"
	stroke-width="0.001388888888888889"
	stroke="black"
/><circle
	cx="3.36"
	cy="9.84"
	fill="none"
	r="8"
	stroke-width="0.001388888888888889"
	stroke="black"
/><circle
	cx="3.52"
	cy="9.84"
	fill="none"
	r="8"
	stroke-width="0.001388888888888889"
	stroke="black"
/><circle
	cx="3.68"
	cy="9.84"
	fill="none"
	r="8"
	stroke-width="0.001388888888888889"
	stroke="black"
/><circle
	cx="3.84"
	cy="9.84"
	fill="none"
	r="8"
	stroke-width="0.001388888888888889"
	stroke="black"
/><circle
	cx="4"
	cy="9.84"
	fill="none"
	r="8"
	stroke-width="0.001388888888888889"
	stroke="black"
/><circle
	cx="4.16"
	cy="9.84"
	fill="none"
	r="8"
	stroke-width="0.001388888888888889"
	stroke="black"
/><circle
	cx="5.44"
	cy="9.84"
	fill="none"
	r="8"
	stroke-width="0.001388888888888889"
	stroke="black"
/><circle
	cx="5.6"
	cy="9.84"
	fill="none"
	r="8"
	stroke-width="0.001388888888888889"
	stroke="black"
/><circle
	cx="5.76"
	cy="9.84"
	fill="none"
	r="8"
	stroke-width="0.001388888888888889"
	stroke="black"
/>
<circle
	cx="2.88"
	cy="9.879999999999999"
	fill="none"
	r="8"
	stroke-width="0.001388888888888889"
	stroke="black"
/><circle
	cx="3.04"
	cy="9.879999999999999"
	fill="none"
	r="8"
	stroke-width="0.001388888888888889"
	stroke="black"
/><circle
	cx="3.2"
	cy="9.879999999999999"
	fill="none"
	r="8"
	stroke-width="0.001388888888888889"
	stroke="black"
/><circle
	cx="3.84"
	cy="9.879999999999999"
	fill="none"
	r="8"
	stroke-width="0.001388888888888889"
	stroke="black"
/><circle
	cx="4"
	cy="9.879999999999999"
	fill="none"
	r="8"
	stroke-width="0.001388888888888889"
	stroke="black"
/><circle
	cx="4.16"
	cy="9.879999999999999"
	fill="none"
	r="8"
	stroke-width="0.001388888888888889"
	stroke="black"
/><circle
	cx="5.44"
	cy="9.879999999999999"
	fill="none"
	r="8"
	stroke-width="0.001388888888888889"
	stroke="black"
/><circle
	cx="5.6"
	cy="9.879999999999999"
	fill="none"
	r="8"
	stroke-width="0.001388888888888889"
	stroke="black"
/><circle
	cx="5.76"
	cy="9.879999999999999"
	fill="none"
	r="8"
	stroke-width="0.001388888888888889"
	stroke="black"
/>
<circle
	cx="2.88"
	cy="9.92"
	fill="none"
	r="8"
	stroke-width="0.001388888888888889"
	stroke="black"
/><circle
	cx="3.04"
	cy="9.92"
	fill="none"
	r="8"
	stroke-width="0.001388888888888889"
	stroke="black"
/><circle
	cx="4"
	cy="9.92"
	fill="none"
	r="8"
	stroke-width="0.001388888888888889"
	stroke="black"
/><circle
	cx="4.16"
	cy="9.92"
	fill="none"
	r="8"
	stroke-width="0.001388888888888889"
	stroke="black"
/><circle
	cx="4.32"
	cy="9.92"
	fill="none"
	r="8"
	stroke-width="0.001388888888888889"
	stroke="black"
/><circle
	cx="5.44"
	cy="9.92"
	fill="none"
	r="8"
	stroke-width="0.001388888888888889"
	stroke="black"
/><circle
	cx="5.76"
	cy="9.92"
	fill="none"
	r="8"
	stroke-width="0.001388888888888889"
	stroke="black"
/>
<circle
	cx="2.72"
	cy="9.96"
	fill="none"
	r="8"
	stroke-width="0.001388888888888889"
	stroke="black"
/><circle
	cx="2.88"
	cy="9.96"
	fill="none"
	r="8"
	stroke-width="0.001388888888888889"
	stroke="black"
/><circle
	cx="3.04"
	cy="9.96"
	fill="none"
	r="8"
	stroke-width="0.001388888888888889"
	stroke="black"
/><circle
	cx="4.16"
	cy="9.96"
	fill="none"
	r="8"
	stroke-width="0.001388888888888889"
	stroke="black"
/><circle
	cx="4.32"
	cy="9.96"
	fill="none"
	r="8"
	stroke-width="0.001388888888888889"
	stroke="black"
/><circle
	cx="5.44"
	cy="9.96"
	fill="none"
	r="8"
	stroke-width="0.001388888888888889"
	stroke="black"
/><circle
	cx="5.76"
	cy="9.96"
	fill="none"
	r="8"
	stroke-width="0.001388888888888889"
	stroke="black"
/>
<circle
	cx="2.72"
	cy="10"
	fill="none"
	r="8"
	stroke-width="0.001388888888888889"
	stroke="black"
/><circle
	cx="2.88"
	cy="10"
	fill="none"
	r="8"
	stroke-width="0.001388888888888889"
	stroke="black"
/><circle
	cx="4.16"
	cy="10"
	fill="none"
	r="8"
	stroke-width="0.001388888888888889"
	stroke="black"
/><circle
	cx="4.32"
	cy="10"
	fill="none"
	r="8"
	stroke-width="0.001388888888888889"
	stroke="black"
/><circle
	cx="4.48"
	cy="10"
	fill="none"
	r="8"
	stroke-width="0.001388888888888889"
	stroke="black"
/><circle
	cx="5.44"
	cy="10"
	fill="none"
	r="8"
	stroke-width="0.001388888888888889"
	stroke="black"
/><circle
	cx="5.76"
	cy="10"
	fill="none"
	r="8"
	stroke-width="0.001388888888888889"
	stroke="black"
/>
<circle
	cx="2.72"
	cy="10.04"
	fill="none"
	r="8"
	stroke-width="0.001388888888888889"
	stroke="black"
/><circle
	cx="2.88"
	cy="10.04"
	fill="none"
	r="8"
	stroke-width="0.001388888888888889"
	stroke="black"
/><circle
	cx="4.32"
	cy="10.04"
	fill="none"
	r="8"
	stroke-width="0.001388888888888889"
	stroke="black"
/><circle
	cx="4.48"
	cy="10.04"
	fill="none"
	r="8"
	stroke-width="0.001388888888888889"
	stroke="black"
/><circle
	cx="5.28"
	cy="10.04"
	fill="none"
	r="8"
	stroke-width="0.001388888888888889"
	stroke="black"
/><circle
	cx="5.44"
	cy="10.04"
	fill="none"
	r="8"
	stroke-width="0.001388888888888889"
	stroke="black"
/><circle
	cx="5.76"
	cy="10.04"
	fill="none"
	r="8"
	stroke-width="0.001388888888888889"
	stroke="black"
/>
<circle
	cx="2.56"
	cy="10.08"
	fill="none"
	r="8"
	stroke-width="0.001388888888888889"
	stroke="black"
/><circle
	cx="2.72"
	cy="10.08"
	fill="none"
	r="8"
	stroke-width="0.001388888888888889"
	stroke="black"
/><circle
	cx="4.32"
	cy="10.08"
	fill="none"
	r="8"
	stroke-width="0.001388888888888889"
	stroke="black"
/><circle
	cx="4.48"
	cy="10.08"
	fill="none"
	r="8"
	stroke-width="0.001388888888888889"
	stroke="black"
/><circle
	cx="5.28"
	cy="10.08"
	fill="none"
	r="8"
	stroke-width="0.001388888888888889"
	stroke="black"
/><circle
	cx="5.76"
	cy="10.08"
	fill="none"
	r="8"
	stroke-width="0.001388888888888889"
	stroke="black"
/>
<circle
	cx="2.56"
	cy="10.120000000000001"
	fill="none"
	r="8"
	stroke-width="0.001388888888888889"
	stroke="black"
/><circle
	cx="2.72"
	cy="10.120000000000001"
	fill="none"
	r="8"
	stroke-width="0.001388888888888889"
	stroke="black"
/><circle
	cx="4.48"
	cy="10.120000000000001"
	fill="none"
	r="8"
	stroke-width="0.001388888888888889"
	stroke="black"
/><circle
	cx="4.64"
	cy="10.120000000000001"
	fill="none"
	r="8"
	stroke-width="0.001388888888888889"
	stroke="black"
/><circle
	cx="5.28"
	cy="10.120000000000001"
	fill="none"
	r="8"
	stroke-width="0.001388888888888889"
	stroke="black"
/>
<circle
	cx="2.56"
	cy="10.16"
	fill="none"
	r="8"
	stroke-width="0.001388888888888889"
	stroke="black"
/><circle
	cx="2.72"
	cy="10.16"
	fill="none"
	r="8"
	stroke-width="0.001388888888888889"
	stroke="black"
/><circle
	cx="4.48"
	cy="10.16"
	fill="none"
	r="8"
	stroke-width="0.001388888888888889"
	stroke="black"
/><circle
	cx="4.64"
	cy="10.16"
	fill="none"
	r="8"
	stroke-width="0.001388888888888889"
	stroke="black"
/><circle
	cx="5.28"
	cy="10.16"
	fill="none"
	r="8"
	stroke-width="0.001388888888888889"
	stroke="black"
/>
<circle
	cx="2.56"
	cy="10.2"
	fill="none"
	r="8"
	stroke-width="0.001388888888888889"
	stroke="black"
/><circle
	cx="4.64"
	cy="10.2"
	fill="none"
	r="8"
	stroke-width="0.001388888888888889"
	stroke="black"
/><circle
	cx="5.28"
	cy="10.2"
	fill="none"
	r="8"
	stroke-width="0.001388888888888889"
	stroke="black"
/>
<circle
	cx="2.56"
	cy="10.24"
	fill="none"
	r="8"
	stroke-width="0.001388888888888889"
	stroke="black"
/><circle
	cx="4.64"
	cy="10.24"
	fill="none"
	r="8"
	stroke-width="0.001388888888888889"
	stroke="black"
/><circle
	cx="4.8"
	cy="10.24"
	fill="none"
	r="8"
	stroke-width="0.001388888888888889"
	stroke="black"
/><circle
	cx="5.28"
	cy="10.24"
	fill="none"
	r="8"
	stroke-width="0.001388888888888889"
	stroke="black"
/><circle
	cx="5.6"
	cy="10.24"
	fill="none"
	r="8"
	stroke-width="0.001388888888888889"
	stroke="black"
/>
<circle
	cx="2.4"
	cy="10.28"
	fill="none"
	r="8"
	stroke-width="0.001388888888888889"
	stroke="black"
/><circle
	cx="2.56"
	cy="10.28"
	fill="none"
	r="8"
	stroke-width="0.001388888888888889"
	stroke="black"
/><circle
	cx="4.64"
	cy="10.28"
	fill="none"
	r="8"
	stroke-width="0.001388888888888889"
	stroke="black"
/><circle
	cx="4.8"
	cy="10.28"
	fill="none"
	r="8"
	stroke-width="0.001388888888888889"
	stroke="black"
/><circle
	cx="5.28"
	cy="10.28"
	fill="none"
	r="8"
	stroke-width="0.001388888888888889"
	stroke="black"
/><circle
	cx="5.6"
	cy="10.28"
	fill="none"
	r="8"
	stroke-width="0.001388888888888889"
	stroke="black"
/>
<circle
	cx="2.4"
	cy="10.32"
	fill="none"
	r="8"
	stroke-width="0.001388888888888889"
	stroke="black"
/><circle
	cx="4.8"
	cy="10.32"
	fill="none"
	r="8"
	stroke-width="0.001388888888888889"
	stroke="black"
/><circle
	cx="5.28"
	cy="10.32"
	fill="none"
	r="8"
	stroke-width="0.001388888888888889"
	stroke="black"
/><circle
	cx="5.6"
	cy="10.32"
	fill="none"
	r="8"
	stroke-width="0.001388888888888889"
	stroke="black"
/>
<circle
	cx="2.4"
	cy="10.36"
	fill="none"
	r="8"
	stroke-width="0.001388888888888889"
	stroke="black"
/><circle
	cx="4.8"
	cy="10.36"
	fill="none"
	r="8"
	stroke-width="0.001388888888888889"
	stroke="black"
/><circle
	cx="4.96"
	cy="10.36"
	fill="none"
	r="8"
	stroke-width="0.001388888888888889"
	stroke="black"
/><circle
	cx="5.12"
	cy="10.36"
	fill="none"
	r="8"
	stroke-width="0.001388888888888889"
	stroke="black"
/><circle
	cx="5.6"
	cy="10.36"
	fill="none"
	r="8"
	stroke-width="0.001388888888888889"
	stroke="black"
/>
<circle
	cx="2.4"
	cy="10.4"
	fill="none"
	r="8"
	stroke-width="0.001388888888888889"
	stroke="black"
/><circle
	cx="4.8"
	cy="10.4"
	fill="none"
	r="8"
	stroke-width="0.001388888888888889"
	stroke="black"
/><circle
	cx="4.96"
	cy="10.4"
	fill="none"
	r="8"
	stroke-width="0.001388888888888889"
	stroke="black"
/><circle
	cx="5.12"
	cy="10.4"
	fill="none"
	r="8"
	stroke-width="0.001388888888888889"
	stroke="black"
/><circle
	cx="5.6"
	cy="10.4"
	fill="none"
	r="8"
	stroke-width="0.001388888888888889"
	stroke="black"
/>
<circle
	cx="2.4"
	cy="10.44"
	fill="none"
	r="8"
	stroke-width="0.001388888888888889"
	stroke="black"
/><circle
	cx="4.96"
	cy="10.44"
	fill="none"
	r="8"
	stroke-width="0.001388888888888889"
	stroke="black"
/><circle
	cx="5.12"
	cy="10.44"
	fill="none"
	r="8"
	stroke-width="0.001388888888888889"
	stroke="black"
/><circle
	cx="5.6"
	cy="10.44"
	fill="none"
	r="8"
	stroke-width="0.001388888888888889"
	stroke="black"
/>
<circle
	cx="2.24"
	cy="10.48"
	fill="none"
	r="8"
	stroke-width="0.001388888888888889"
	stroke="black"
/><circle
	cx="2.4"
	cy="10.48"
	fill="none"
	r="8"
	stroke-width="0.001388888888888889"
	stroke="black"
/><circle
	cx="4.96"
	cy="10.48"
	fill="none"
	r="8"
	stroke-width="0.001388888888888889"
	stroke="black"
/><circle
	cx="5.12"
	cy="10.48"
	fill="none"
	r="8"
	stroke-width="0.001388888888888889"
	stroke="black"
/><circle
	cx="5.6"
	cy="10.48"
	fill="none"
	r="8"
	stroke-width="0.001388888888888889"
	stroke="black"
/>
<circle
	cx="2.24"
	cy="10.52"
	fill="none"
	r="8"
	stroke-width="0.001388888888888889"
	stroke="black"
/><circle
	cx="4.96"
	cy="10.52"
	fill="none"
	r="8"
	stroke-width="0.001388888888888889"
	stroke="black"
/><circle
	cx="5.12"
	cy="10.52"
	fill="none"
	r="8"
	stroke-width="0.001388888888888889"
	stroke="black"
/><circle
	cx="5.6"
	cy="10.52"
	fill="none"
	r="8"
	stroke-width="0.001388888888888889"
	stroke="black"
/>
<circle
	cx="2.24"
	cy="10.56"
	fill="none"
	r="8"
	stroke-width="0.001388888888888889"
	stroke="black"
/><circle
	cx="4.96"
	cy="10.56"
	fill="none"
	r="8"
	stroke-width="0.001388888888888889"
	stroke="black"
/><circle
	cx="5.12"
	cy="10.56"
	fill="none"
	r="8"
	stroke-width="0.001388888888888889"
	stroke="black"
/><circle
	cx="5.6"
	cy="10.56"
	fill="none"
	r="8"
	stroke-width="0.001388888888888889"
	stroke="black"
/>
<circle
	cx="2.24"
	cy="10.6"
	fill="none"
	r="8"
	stroke-width="0.001388888888888889"
	stroke="black"
/><circle
	cx="5.12"
	cy="10.6"
	fill="none"
	r="8"
	stroke-width="0.001388888888888889"
	stroke="black"
/><circle
	cx="5.6"
	cy="10.6"
	fill="none"
	r="8"
	stroke-width="0.001388888888888889"
	stroke="black"
/>
<circle
	cx="2.24"
	cy="10.64"
	fill="none"
	r="8"
	stroke-width="0.001388888888888889"
	stroke="black"
/><circle
	cx="2.56"
	cy="10.64"
	fill="none"
	r="8"
	stroke-width="0.001388888888888889"
	stroke="black"
/><circle
	cx="5.12"
	cy="10.64"
	fill="none"
	r="8"
	stroke-width="0.001388888888888889"
	stroke="black"
/><circle
	cx="5.6"
	cy="10.64"
	fill="none"
	r="8"
	stroke-width="0.001388888888888889"
	stroke="black"
/>
<circle
	cx="2.24"
	cy="10.68"
	fill="none"
	r="8"
	stroke-width="0.001388888888888889"
	stroke="black"
/><circle
	cx="2.56"
	cy="10.68"
	fill="none"
	r="8"
	stroke-width="0.001388888888888889"
	stroke="black"
/><circle
	cx="5.6"
	cy="10.68"
	fill="none"
	r="8"
	stroke-width="0.001388888888888889"
	stroke="black"
/>
<circle
	cx="2.08"
	cy="10.72"
	fill="none"
	r="8"
	stroke-width="0.001388888888888889"
	stroke="black"
/><circle
	cx="2.24"
	cy="10.72"
	fill="none"
	r="8"
	stroke-width="0.001388888888888889"
	stroke="black"
/><circle
	cx="2.4"
	cy="10.72"
	fill="none"
	r="8"
	stroke-width="0.001388888888888889"
	stroke="black"
/><circle
	cx="2.56"
	cy="10.72"
	fill="none"
	r="8"
	stroke-width="0.001388888888888889"
	stroke="black"
/><circle
	cx="5.6"
	cy="10.72"
	fill="none"
	r="8"
	stroke-width="0.001388888888888889"
	stroke="black"
/>
<circle
	cx="2.08"
	cy="10.76"
	fill="none"
	r="8"
	stroke-width="0.001388888888888889"
	stroke="black"
/><circle
	cx="2.4"
	cy="10.76"
	fill="none"
	r="8"
	stroke-width="0.001388888888888889"
	stroke="black"
/><circle
	cx="2.56"
	cy="10.76"
	fill="none"
	r="8"
	stroke-width="0.001388888888888889"
	stroke="black"
/><circle
	cx="5.6"
	cy="10.76"
	fill="none"
	r="8"
	stroke-width="0.001388888888888889"
	stroke="black"
/>
<circle
	cx="2.08"
	cy="10.8"
	fill="none"
	r="8"
	stroke-width="0.001388888888888889"
	stroke="black"
/><circle
	cx="2.4"
	cy="10.8"
	fill="none"
	r="8"
	stroke-width="0.001388888888888889"
	stroke="black"
/><circle
	cx="2.56"
	cy="10.8"
	fill="none"
	r="8"
	stroke-width="0.001388888888888889"
	stroke="black"
/><circle
	cx="5.6"
	cy="10.8"
	fill="none"
	r="8"
	stroke-width="0.001388888888888889"
	stroke="black"
/>
<circle
	cx="2.08"
	cy="10.84"
	fill="none"
	r="8"
	stroke-width="0.001388888888888889"
	stroke="black"
/><circle
	cx="2.4"
	cy="10.84"
	fill="none"
	r="8"
	stroke-width="0.001388888888888889"
	stroke="black"
/><circle
	cx="2.56"
	cy="10.84"
	fill="none"
	r="8"
	stroke-width="0.001388888888888889"
	stroke="black"
/><circle
	cx="5.6"
	cy="10.84"
	fill="none"
	r="8"
	stroke-width="0.001388888888888889"
	stroke="black"
/>
<circle
	cx="2.08"
	cy="10.879999999999999"
	fill="none"
	r="8"
	stroke-width="0.001388888888888889"
	stroke="black"
/><circle
	cx="2.4"
	cy="10.879999999999999"
	fill="none"
	r="8"
	stroke-width="0.001388888888888889"
	stroke="black"
/><circle
	cx="2.56"
	cy="10.879999999999999"
	fill="none"
	r="8"
	stroke-width="0.001388888888888889"
	stroke="black"
/><circle
	cx="5.6"
	cy="10.879999999999999"
	fill="none"
	r="8"
	stroke-width="0.001388888888888889"
	stroke="black"
/>
<circle
	cx="2.08"
	cy="10.92"
	fill="none"
	r="8"
	stroke-width="0.001388888888888889"
	stroke="black"
/><circle
	cx="2.4"
	cy="10.92"
	fill="none"
	r="8"
	stroke-width="0.001388888888888889"
	stroke="black"
/><circle
	cx="2.56"
	cy="10.92"
	fill="none"
	r="8"
	stroke-width="0.001388888888888889"
	stroke="black"
/><circle
	cx="5.6"
	cy="10.92"
	fill="none"
	r="8"
	stroke-width="0.001388888888888889"
	stroke="black"
/>
<circle
	cx="2.08"
	cy="10.96"
	fill="none"
	r="8"
	stroke-width="0.001388888888888889"
	stroke="black"
/><circle
	cx="2.4"
	cy="10.96"
	fill="none"
	r="8"
	stroke-width="0.001388888888888889"
	stroke="black"
/><circle
	cx="2.56"
	cy="10.96"
	fill="none"
	r="8"
	stroke-width="0.001388888888888889"
	stroke="black"
/><circle
	cx="5.6"
	cy="10.96"
	fill="none"
	r="8"
	stroke-width="0.001388888888888889"
	stroke="black"
/>
<circle
	cx="2.08"
	cy="11"
	fill="none"
	r="8"
	stroke-width="0.001388888888888889"
	stroke="black"
/><circle
	cx="2.56"
	cy="11"
	fill="none"
	r="8"
	stroke-width="0.001388888888888889"
	stroke="black"
/><circle
	cx="5.6"
	cy="11"
	fill="none"
	r="8"
	stroke-width="0.001388888888888889"
	stroke="black"
/>
<circle
	cx="2.56"
	cy="11.04"
	fill="none"
	r="8"
	stroke-width="0.001388888888888889"
	stroke="black"
/><circle
	cx="5.6"
	cy="11.04"
	fill="none"
	r="8"
	stroke-width="0.001388888888888889"
	stroke="black"
/>
<circle
	cx="2.08"
	cy="11.08"
	fill="none"
	r="8"
	stroke-width="0.001388888888888889"
	stroke="black"
/><circle
	cx="5.6"
	cy="11.08"
	fill="none"
	r="8"
	stroke-width="0.001388888888888889"
	stroke="black"
/>
<circle
	cx="2.08"
	cy="11.120000000000001"
	fill="none"
	r="8"
	stroke-width="0.001388888888888889"
	stroke="black"
/><circle
	cx="5.6"
	cy="11.120000000000001"
	fill="none"
	r="8"
	stroke-width="0.001388888888888889"
	stroke="black"
/>
<circle
	cx="2.08"
	cy="11.16"
	fill="none"
	r="8"
	stroke-width="0.001388888888888889"
	stroke="black"
/><circle
	cx="5.6"
	cy="11.16"
	fill="none"
	r="8"
	stroke-width="0.001388888888888889"
	stroke="black"
/>
<circle
	cx="2.08"
	cy="11.2"
	fill="none"
	r="8"
	stroke-width="0.001388888888888889"
	stroke="black"
/><circle
	cx="5.12"
	cy="11.2"
	fill="none"
	r="8"
	stroke-width="0.001388888888888889"
	stroke="black"
/><circle
	cx="5.6"
	cy="11.2"
	fill="none"
	r="8"
	stroke-width="0.001388888888888889"
	stroke="black"
/>
<circle
	cx="2.08"
	cy="11.24"
	fill="none"
	r="8"
	stroke-width="0.001388888888888889"
	stroke="black"
/><circle
	cx="5.12"
	cy="11.24"
	fill="none"
	r="8"
	stroke-width="0.001388888888888889"
	stroke="black"
/>
<circle
	cx="2.08"
	cy="11.28"
	fill="none"
	r="8"
	stroke-width="0.001388888888888889"
	stroke="black"
/><circle
	cx="5.12"
	cy="11.28"
	fill="none"
	r="8"
	stroke-width="0.001388888888888889"
	stroke="black"
/>
<circle
	cx="2.08"
	cy="11.32"
	fill="none"
	r="8"
	stroke-width="0.001388888888888889"
	stroke="black"
/><circle
	cx="4.96"
	cy="11.32"
	fill="none"
	r="8"
	stroke-width="0.001388888888888889"
	stroke="black"
/><circle
	cx="5.12"
	cy="11.32"
	fill="none"
	r="8"
	stroke-width="0.001388888888888889"
	stroke="black"
/>
<circle
	cx="2.08"
	cy="11.36"
	fill="none"
	r="8"
	stroke-width="0.001388888888888889"
	stroke="black"
/><circle
	cx="2.24"
	cy="11.36"
	fill="none"
	r="8"
	stroke-width="0.001388888888888889"
	stroke="black"
/><circle
	cx="4.96"
	cy="11.36"
	fill="none"
	r="8"
	stroke-width="0.001388888888888889"
	stroke="black"
/><circle
	cx="5.12"
	cy="11.36"
	fill="none"
	r="8"
	stroke-width="0.001388888888888889"
	stroke="black"
/><circle
	cx="5.76"
	cy="11.36"
	fill="none"
	r="8"
	stroke-width="0.001388888888888889"
	stroke="black"
/>
<circle
	cx="2.24"
	cy="11.4"
	fill="none"
	r="8"
	stroke-width="0.001388888888888889"
	stroke="black"
/><circle
	cx="4.96"
	cy="11.4"
	fill="none"
	r="8"
	stroke-width="0.001388888888888889"
	stroke="black"
/><circle
	cx="5.12"
	cy="11.4"
	fill="none"
	r="8"
	stroke-width="0.001388888888888889"
	stroke="black"
/><circle
	cx="5.76"
	cy="11.4"
	fill="none"
	r="8"
	stroke-width="0.001388888888888889"
	stroke="black"
/>
<circle
	cx="2.24"
	cy="11.44"
	fill="none"
	r="8"
	stroke-width="0.001388888888888889"
	stroke="black"
/><circle
	cx="4.96"
	cy="11.44"
	fill="none"
	r="8"
	stroke-width="0.001388888888888889"
	stroke="black"
/><circle
	cx="5.12"
	cy="11.44"
	fill="none"
	r="8"
	stroke-width="0.001388888888888889"
	stroke="black"
/><circle
	cx="5.76"
	cy="11.44"
	fill="none"
	r="8"
	stroke-width="0.001388888888888889"
	stroke="black"
/>
<circle
	cx="2.24"
	cy="11.48"
	fill="none"
	r="8"
	stroke-width="0.001388888888888889"
	stroke="black"
/><circle
	cx="4.96"
	cy="11.48"
	fill="none"
	r="8"
	stroke-width="0.001388888888888889"
	stroke="black"
/><circle
	cx="5.28"
	cy="11.48"
	fill="none"
	r="8"
	stroke-width="0.001388888888888889"
	stroke="black"
/><circle
	cx="5.76"
	cy="11.48"
	fill="none"
	r="8"
	stroke-width="0.001388888888888889"
	stroke="black"
/>
<circle
	cx="2.24"
	cy="11.52"
	fill="none"
	r="8"
	stroke-width="0.001388888888888889"
	stroke="black"
/><circle
	cx="4.8"
	cy="11.52"
	fill="none"
	r="8"
	stroke-width="0.001388888888888889"
	stroke="black"
/><circle
	cx="4.96"
	cy="11.52"
	fill="none"
	r="8"
	stroke-width="0.001388888888888889"
	stroke="black"
/><circle
	cx="5.28"
	cy="11.52"
	fill="none"
	r="8"
	stroke-width="0.001388888888888889"
	stroke="black"
/><circle
	cx="5.76"
	cy="11.52"
	fill="none"
	r="8"
	stroke-width="0.001388888888888889"
	stroke="black"
/>
<circle
	cx="2.24"
	cy="11.56"
	fill="none"
	r="8"
	stroke-width="0.001388888888888889"
	stroke="black"
/><circle
	cx="4.8"
	cy="11.56"
	fill="none"
	r="8"
	stroke-width="0.001388888888888889"
	stroke="black"
/><circle
	cx="4.96"
	cy="11.56"
	fill="none"
	r="8"
	stroke-width="0.001388888888888889"
	stroke="black"
/><circle
	cx="5.28"
	cy="11.56"
	fill="none"
	r="8"
	stroke-width="0.001388888888888889"
	stroke="black"
/><circle
	cx="5.76"
	cy="11.56"
	fill="none"
	r="8"
	stroke-width="0.001388888888888889"
	stroke="black"
/>
<circle
	cx="2.24"
	cy="11.6"
	fill="none"
	r="8"
	stroke-width="0.001388888888888889"
	stroke="black"
/><circle
	cx="2.4"
	cy="11.6"
	fill="none"
	r="8"
	stroke-width="0.001388888888888889"
	stroke="black"
/><circle
	cx="4.8"
	cy="11.6"
	fill="none"
	r="8"
	stroke-width="0.001388888888888889"
	stroke="black"
/><circle
	cx="5.28"
	cy="11.6"
	fill="none"
	r="8"
	stroke-width="0.001388888888888889"
	stroke="black"
/><circle
	cx="5.76"
	cy="11.6"
	fill="none"
	r="8"
	stroke-width="0.001388888888888889"
	stroke="black"
/>
<circle
	cx="2.4"
	cy="11.64"
	fill="none"
	r="8"
	stroke-width="0.001388888888888889"
	stroke="black"
/><circle
	cx="4.8"
	cy="11.64"
	fill="none"
	r="8"
	stroke-width="0.001388888888888889"
	stroke="black"
/><circle
	cx="5.28"
	cy="11.64"
	fill="none"
	r="8"
	stroke-width="0.001388888888888889"
	stroke="black"
/><circle
	cx="5.76"
	cy="11.64"
	fill="none"
	r="8"
	stroke-width="0.001388888888888889"
	stroke="black"
/>
<circle
	cx="2.4"
	cy="11.68"
	fill="none"
	r="8"
	stroke-width="0.001388888888888889"
	stroke="black"
/><circle
	cx="4.8"
	cy="11.68"
	fill="none"
	r="8"
	stroke-width="0.001388888888888889"
	stroke="black"
/><circle
	cx="5.28"
	cy="11.68"
	fill="none"
	r="8"
	stroke-width="0.001388888888888889"
	stroke="black"
/><circle
	cx="5.76"
	cy="11.68"
	fill="none"
	r="8"
	stroke-width="0.001388888888888889"
	stroke="black"
/>
<circle
	cx="2.4"
	cy="11.72"
	fill="none"
	r="8"
	stroke-width="0.001388888888888889"
	stroke="black"
/><circle
	cx="4.64"
	cy="11.72"
	fill="none"
	r="8"
	stroke-width="0.001388888888888889"
	stroke="black"
/><circle
	cx="4.8"
	cy="11.72"
	fill="none"
	r="8"
	stroke-width="0.001388888888888889"
	stroke="black"
/><circle
	cx="5.28"
	cy="11.72"
	fill="none"
	r="8"
	stroke-width="0.001388888888888889"
	stroke="black"
/><circle
	cx="5.44"
	cy="11.72"
	fill="none"
	r="8"
	stroke-width="0.001388888888888889"
	stroke="black"
/><circle
	cx="5.76"
	cy="11.72"
	fill="none"
	r="8"
	stroke-width="0.001388888888888889"
	stroke="black"
/>
<circle
	cx="2.4"
	cy="11.76"
	fill="none"
	r="8"
	stroke-width="0.001388888888888889"
	stroke="black"
/><circle
	cx="4.64"
	cy="11.76"
	fill="none"
	r="8"
	stroke-width="0.001388888888888889"
	stroke="black"
/><circle
	cx="5.44"
	cy="11.76"
	fill="none"
	r="8"
	stroke-width="0.001388888888888889"
	stroke="black"
/><circle
	cx="5.76"
	cy="11.76"
	fill="none"
	r="8"
	stroke-width="0.001388888888888889"
	stroke="black"
/>
<circle
	cx="2.4"
	cy="11.8"
	fill="none"
	r="8"
	stroke-width="0.001388888888888889"
	stroke="black"
/><circle
	cx="2.56"
	cy="11.8"
	fill="none"
	r="8"
	stroke-width="0.001388888888888889"
	stroke="black"
/><circle
	cx="4.64"
	cy="11.8"
	fill="none"
	r="8"
	stroke-width="0.001388888888888889"
	stroke="black"
/><circle
	cx="5.44"
	cy="11.8"
	fill="none"
	r="8"
	stroke-width="0.001388888888888889"
	stroke="black"
/><circle
	cx="5.76"
	cy="11.8"
	fill="none"
	r="8"
	stroke-width="0.001388888888888889"
	stroke="black"
/>
<circle
	cx="2.4"
	cy="11.84"
	fill="none"
	r="8"
	stroke-width="0.001388888888888889"
	stroke="black"
/><circle
	cx="2.56"
	cy="11.84"
	fill="none"
	r="8"
	stroke-width="0.001388888888888889"
	stroke="black"
/><circle
	cx="4.48"
	cy="11.84"
	fill="none"
	r="8"
	stroke-width="0.001388888888888889"
	stroke="black"
/><circle
	cx="4.64"
	cy="11.84"
	fill="none"
	r="8"
	stroke-width="0.001388888888888889"
	stroke="black"
/><circle
	cx="5.44"
	cy="11.84"
	fill="none"
	r="8"
	stroke-width="0.001388888888888889"
	stroke="black"
/><circle
	cx="5.76"
	cy="11.84"
	fill="none"
	r="8"
	stroke-width="0.001388888888888889"
	stroke="black"
/>
<circle
	cx="2.56"
	cy="11.879999999999999"
	fill="none"
	r="8"
	stroke-width="0.001388888888888889"
	stroke="black"
/><circle
	cx="4.48"
	cy="11.879999999999999"
	fill="none"
	r="8"
	stroke-width="0.001388888888888889"
	stroke="black"
/><circle
	cx="4.64"
	cy="11.879999999999999"
	fill="none"
	r="8"
	stroke-width="0.001388888888888889"
	stroke="black"
/><circle
	cx="5.44"
	cy="11.879999999999999"
	fill="none"
	r="8"
	stroke-width="0.001388888888888889"
	stroke="black"
/><circle
	cx="5.6"
	cy="11.879999999999999"
	fill="none"
	r="8"
	stroke-width="0.001388888888888889"
	stroke="black"
/><circle
	cx="5.76"
	cy="11.879999999999999"
	fill="none"
	r="8"
	stroke-width="0.001388888888888889"
	stroke="black"
/>
<circle
	cx="2.56"
	cy="11.92"
	fill="none"
	r="8"
	stroke-width="0.001388888888888889"
	stroke="black"
/><circle
	cx="4.48"
	cy="11.92"
	fill="none"
	r="8"
	stroke-width="0.001388888888888889"
	stroke="black"
/><circle
	cx="5.44"
	cy="11.92"
	fill="none"
	r="8"
	stroke-width="0.001388888888888889"
	stroke="black"
/><circle
	cx="5.6"
	cy="11.92"
	fill="none"
	r="8"
	stroke-width="0.001388888888888889"
	stroke="black"
/><circle
	cx="5.76"
	cy="11.92"
	fill="none"
	r="8"
	stroke-width="0.001388888888888889"
	stroke="black"
/>
<circle
	cx="2.56"
	cy="11.96"
	fill="none"
	r="8"
	stroke-width="0.001388888888888889"
	stroke="black"
/><circle
	cx="2.72"
	cy="11.96"
	fill="none"
	r="8"
	stroke-width="0.001388888888888889"
	stroke="black"
/><circle
	cx="4.48"
	cy="11.96"
	fill="none"
	r="8"
	stroke-width="0.001388888888888889"
	stroke="black"
/><circle
	cx="5.6"
	cy="11.96"
	fill="none"
	r="8"
	stroke-width="0.001388888888888889"
	stroke="black"
/><circle
	cx="5.76"
	cy="11.96"
	fill="none"
	r="8"
	stroke-width="0.001388888888888889"
	stroke="black"
/>
<circle
	cx="2.56"
	cy="12"
	fill="none"
	r="8"
	stroke-width="0.001388888888888889"
	stroke="black"
/><circle
	cx="2.72"
	cy="12"
	fill="none"
	r="8"
	stroke-width="0.001388888888888889"
	stroke="black"
/><circle
	cx="4.32"
	cy="12"
	fill="none"
	r="8"
	stroke-width="0.001388888888888889"
	stroke="black"
/><circle
	cx="4.48"
	cy="12"
	fill="none"
	r="8"
	stroke-width="0.001388888888888889"
	stroke="black"
/><circle
	cx="5.6"
	cy="12"
	fill="none"
	r="8"
	stroke-width="0.001388888888888889"
	stroke="black"
/><circle
	cx="5.76"
	cy="12"
	fill="none"
	r="8"
	stroke-width="0.001388888888888889"
	stroke="black"
/>
<circle
	cx="2.72"
	cy="12.04"
	fill="none"
	r="8"
	stroke-width="0.001388888888888889"
	stroke="black"
/><circle
	cx="4.32"
	cy="12.04"
	fill="none"
	r="8"
	stroke-width="0.001388888888888889"
	stroke="black"
/><circle
	cx="4.48"
	cy="12.04"
	fill="none"
	r="8"
	stroke-width="0.001388888888888889"
	stroke="black"
/><circle
	cx="5.6"
	cy="12.04"
	fill="none"
	r="8"
	stroke-width="0.001388888888888889"
	stroke="black"
/><circle
	cx="5.76"
	cy="12.04"
	fill="none"
	r="8"
	stroke-width="0.001388888888888889"
	stroke="black"
/>
<circle
	cx="2.72"
	cy="12.08"
	fill="none"
	r="8"
	stroke-width="0.001388888888888889"
	stroke="black"
/><circle
	cx="2.88"
	cy="12.08"
	fill="none"
	r="8"
	stroke-width="0.001388888888888889"
	stroke="black"
/><circle
	cx="4.16"
	cy="12.08"
	fill="none"
	r="8"
	stroke-width="0.001388888888888889"
	stroke="black"
/><circle
	cx="4.32"
	cy="12.08"
	fill="none"
	r="8"
	stroke-width="0.001388888888888889"
	stroke="black"
/><circle
	cx="5.76"
	cy="12.08"
	fill="none"
	r="8"
	stroke-width="0.001388888888888889"
	stroke="black"
/>
<circle
	cx="2.72"
	cy="12.120000000000001"
	fill="none"
	r="8"
	stroke-width="0.001388888888888889"
	stroke="black"
/><circle
	cx="2.88"
	cy="12.120000000000001"
	fill="none"
	r="8"
	stroke-width="0.001388888888888889"
	stroke="black"
/><circle
	cx="4.16"
	cy="12.120000000000001"
	fill="none"
	r="8"
	stroke-width="0.001388888888888889"
	stroke="black"
/><circle
	cx="4.32"
	cy="12.120000000000001"
	fill="none"
	r="8"
	stroke-width="0.001388888888888889"
	stroke="black"
/><circle
	cx="5.76"
	cy="12.120000000000001"
	fill="none"
	r="8"
	stroke-width="0.001388888888888889"
	stroke="black"
/>
<circle
	cx="2.72"
	cy="12.16"
	fill="none"
	r="8"
	stroke-width="0.001388888888888889"
	stroke="black"
/><circle
	cx="2.88"
	cy="12.16"
	fill="none"
	r="8"
	stroke-width="0.001388888888888889"
	stroke="black"
/><circle
	cx="4"
	cy="12.16"
	fill="none"
	r="8"
	stroke-width="0.001388888888888889"
	stroke="black"
/><circle
	cx="4.16"
	cy="12.16"
	fill="none"
	r="8"
	stroke-width="0.001388888888888889"
	stroke="black"
/><circle
	cx="4.32"
	cy="12.16"
	fill="none"
	r="8"
	stroke-width="0.001388888888888889"
	stroke="black"
/><circle
	cx="5.76"
	cy="12.16"
	fill="none"
	r="8"
	stroke-width="0.001388888888888889"
	stroke="black"
/>
<circle
	cx="2.88"
	cy="12.2"
	fill="none"
	r="8"
	stroke-width="0.001388888888888889"
	stroke="black"
/><circle
	cx="3.04"
	cy="12.2"
	fill="none"
	r="8"
	stroke-width="0.001388888888888889"
	stroke="black"
/><circle
	cx="4"
	cy="12.2"
	fill="none"
	r="8"
	stroke-width="0.001388888888888889"
	stroke="black"
/><circle
	cx="4.16"
	cy="12.2"
	fill="none"
	r="8"
	stroke-width="0.001388888888888889"
	stroke="black"
/>
<circle
	cx="2.88"
	cy="12.24"
	fill="none"
	r="8"
	stroke-width="0.001388888888888889"
	stroke="black"
/><circle
	cx="3.04"
	cy="12.24"
	fill="none"
	r="8"
	stroke-width="0.001388888888888889"
	stroke="black"
/><circle
	cx="3.2"
	cy="12.24"
	fill="none"
	r="8"
	stroke-width="0.001388888888888889"
	stroke="black"
/><circle
	cx="3.84"
	cy="12.24"
	fill="none"
	r="8"
	stroke-width="0.001388888888888889"
	stroke="black"
/><circle
	cx="4"
	cy="12.24"
	fill="none"
	r="8"
	stroke-width="0.001388888888888889"
	stroke="black"
/><circle
	cx="4.16"
	cy="12.24"
	fill="none"
	r="8"
	stroke-width="0.001388888888888889"
	stroke="black"
/>
<circle
	cx="2.88"
	cy="12.280000000000001"
	fill="none"
	r="8"
	stroke-width="0.001388888888888889"
	stroke="black"
/><circle
	cx="3.04"
	cy="12.280000000000001"
	fill="none"
	r="8"
	stroke-width="0.001388888888888889"
	stroke="black"
/><circle
	cx="3.2"
	cy="12.280000000000001"
	fill="none"
	r="8"
	stroke-width="0.001388888888888889"
	stroke="black"
/><circle
	cx="3.36"
	cy="12.280000000000001"
	fill="none"
	r="8"
	stroke-width="0.001388888888888889"
	stroke="black"
/><circle
	cx="3.52"
	cy="12.280000000000001"
	fill="none"
	r="8"
	stroke-width="0.001388888888888889"
	stroke="black"
/><circle
	cx="3.68"
	cy="12.280000000000001"
	fill="none"
	r="8"
	stroke-width="0.001388888888888889"
	stroke="black"
/><circle
	cx="3.84"
	cy="12.280000000000001"
	fill="none"
	r="8"
	stroke-width="0.001388888888888889"
	stroke="black"
/><circle
	cx="4"
	cy="12.280000000000001"
	fill="none"
	r="8"
	stroke-width="0.001388888888888889"
	stroke="black"
/><circle
	cx="4.16"
	cy="12.280000000000001"
	fill="none"
	r="8"
	stroke-width="0.001388888888888889"
	stroke="black"
/>
<circle
	cx="3.04"
	cy="12.32"
	fill="none"
	r="8"
	stroke-width="0.001388888888888889"
	stroke="black"
/><circle
	cx="3.2"
	cy="12.32"
	fill="none"
	r="8"
	stroke-width="0.001388888888888889"
	stroke="black"
/><circle
	cx="3.36"
	cy="12.32"
	fill="none"
	r="8"
	stroke-width="0.001388888888888889"
	stroke="black"
/><circle
	cx="3.52"
	cy="12.32"
	fill="none"
	r="8"
	stroke-width="0.001388888888888889"
	stroke="black"
/><circle
	cx="3.68"
	cy="12.32"
	fill="none"
	r="8"
	stroke-width="0.001388888888888889"
	stroke="black"
/><circle
	cx="3.84"
	cy="12.32"
	fill="none"
	r="8"
	stroke-width="0.001388888888888889"
	stroke="black"
/><circle
	cx="4"
	cy="12.32"
	fill="none"
	r="8"
	stroke-width="0.001388888888888889"
	stroke="black"
/>
<circle
	cx="3.04"
	cy="12.36"
	fill="none"
	r="8"
	stroke-width="0.001388888888888889"
	stroke="black"
/><circle
	cx="3.2"
	cy="12.36"
	fill="none"
	r="8"
	stroke-width="0.001388888888888889"
	stroke="black"
/><circle
	cx="3.36"
	cy="12.36"
	fill="none"
	r="8"
	stroke-width="0.001388888888888889"
	stroke="black"
/><circle
	cx="3.52"
	cy="12.36"
	fill="none"
	r="8"
	stroke-width="0.001388888888888889"
	stroke="black"
/><circle
	cx="3.68"
	cy="12.36"
	fill="none"
	r="8"
	stroke-width="0.001388888888888889"
	stroke="black"
/><circle
	cx="3.84"
	cy="12.36"
	fill="none"
	r="8"
	stroke-width="0.001388888888888889"
	stroke="black"
/><circle
	cx="4"
	cy="12.36"
	fill="none"
	r="8"
	stroke-width="0.001388888888888889"
	stroke="black"
/>
<circle
	cx="3.2"
	cy="12.4"
	fill="none"
	r="8"
	stroke-width="0.001388888888888889"
	stroke="black"
/><circle
	cx="3.36"
	cy="12.4"
	fill="none"
	r="8"
	stroke-width="0.001388888888888889"
	stroke="black"
/><circle
	cx="3.52"
	cy="12.4"
	fill="none"
	r="8"
	stroke-width="0.001388888888888889"
	stroke="black"
/><circle
	cx="3.68"
	cy="12.4"
	fill="none"
	r="8"
	stroke-width="0.001388888888888889"
	stroke="black"
/><circle
	cx="3.84"
	cy="12.4"
	fill="none"
	r="8"
	stroke-width="0.001388888888888889"
	stroke="black"
/>
<circle
	cx="3.36"
	cy="12.440000000000001"
	fill="none"
	r="8"
	stroke-width="0.001388888888888889"
	stroke="black"
/><circle
	cx="3.52"
	cy="12.440000000000001"
	fill="none"
	r="8"
	stroke-width="0.001388888888888889"
	stroke="black"
/><circle
	cx="3.68"
	cy="12.440000000000001"
	fill="none"
	r="8"
	stroke-width="0.001388888888888889"
	stroke="black"
/></svg>
